<!DOCTYPE svg [<!ENTITY nbsp "&#160;">]><svg width="442pt" height="215pt" viewBox="0 0 442 215" xmlns="http://www.w3.org/2000/svg" xmlns:xlink="http://www.w3.org/1999/xlink">
<g id="graph0" class="graph" transform="scale(1 1) rotate(0) translate(4 210.6147)">
<title>G</title>
<polygon fill="#ffffff" stroke="transparent" points="-4,4 -4,-210.6147 438.267,-210.6147 438.267,4 -4,4"></polygon>
<!-- 131115212 -->
<g id="node1" class="node">
<title>131115212</title>
<polygon fill="none" stroke="#000000" points="135.7389,-146.6147 -.2469,-146.6147 -.2469,-126.6147 135.7389,-126.6147 135.7389,-146.6147"></polygon>
<text text-anchor="middle" x="67.746" y="-133.6147" font-family="Helvetica Neue" font-size="10.00" fill="#000000">5: &nbsp;if({param1} &gt;= 0) goto 7</text>
</g>
<!-- &#45;233834793 -->
<g id="node2" class="node">
<title>-233834793</title>
<polygon fill="none" stroke="#000000" points="185.164,-61.3073 70.328,-61.3073 70.328,-41.3073 185.164,-41.3073 185.164,-61.3073"></polygon>
<text text-anchor="middle" x="127.746" y="-48.3073" font-family="Helvetica Neue" font-size="10.00" fill="#000000">7: return {lv6, param1}</text>
</g>
<!-- 131115212&#45;&gt;&#45;233834793 -->
<g id="edge1" class="edge">
<title>131115212-&gt;-233834793</title>
<path fill="none" stroke="#000000" d="M68.7336,-126.5976C70.2915,-115.0606 74.1986,-95.9821 83.746,-82.6147 87.9196,-76.7712 93.5345,-71.6219 99.3547,-67.2744"></path>
<polygon fill="#000000" stroke="#000000" points="101.5718,-69.9998 107.8848,-61.4911 97.6436,-64.2059 101.5718,-69.9998"></polygon>
</g>
<!-- 1026072380 -->
<g id="node3" class="node">
<title>1026072380</title>
<polygon fill="none" stroke="#000000" points="202.246,-102.6147 93.246,-102.6147 93.246,-82.6147 202.246,-82.6147 202.246,-102.6147"></polygon>
<text text-anchor="middle" x="147.746" y="-89.6147" font-family="Helvetica Neue" font-size="10.00" fill="#000000">6: lv6 = - {param1}</text>
</g>
<!-- 131115212&#45;&gt;1026072380 -->
<g id="edge2" class="edge">
<title>131115212-&gt;1026072380</title>
<path fill="none" stroke="#000000" d="M86.3007,-126.4096C96.3977,-120.8562 109.0831,-113.8793 120.302,-107.7089"></path>
<polygon fill="#000000" stroke="#000000" points="122.2165,-110.6504 129.2919,-102.7644 118.843,-104.5169 122.2165,-110.6504"></polygon>
</g>
<!-- &#45;934396624 -->
<g id="node4" class="node">
<title>-934396624</title>
<polygon fill="#00ff00" stroke="#000000" points="154.746,-20 100.746,-20 100.746,0 154.746,0 154.746,-20"></polygon>
<text text-anchor="middle" x="127.746" y="-7" font-family="Helvetica Neue" font-size="10.00" fill="#000000">return</text>
</g>
<!-- &#45;233834793&#45;&gt;&#45;934396624 -->
<g id="edge6" class="edge">
<title>-233834793-&gt;-934396624</title>
<path fill="none" stroke="#000000" d="M127.746,-40.8838C127.746,-37.7289 127.746,-34.148 127.746,-30.5705"></path>
<polygon fill="#000000" stroke="#000000" points="131.2461,-30.2771 127.746,-20.2772 124.2461,-30.2772 131.2461,-30.2771"></polygon>
</g>
<!-- 1026072380&#45;&gt;&#45;233834793 -->
<g id="edge3" class="edge">
<title>1026072380-&gt;-233834793</title>
<path fill="none" stroke="#000000" d="M142.6992,-82.1911C141.0285,-78.7405 139.111,-74.7802 137.2188,-70.8721"></path>
<polygon fill="#000000" stroke="#000000" points="140.23,-69.0598 132.7219,-61.5845 133.9296,-72.1103 140.23,-69.0598"></polygon>
</g>
<!-- 1819764736 -->
<g id="node5" class="node">
<title>1819764736</title>
<polygon fill="#00ff00" stroke="#000000" points="252.2967,-206.6147 109.1953,-206.6147 109.1953,-170.6147 252.2967,-170.6147 252.2967,-206.6147"></polygon>
<text text-anchor="start" x="116.971" y="-191.6147" font-family="Helvetica Neue" font-size="10.00" fill="#000000">0: lv0 = -2147483648</text>
<text text-anchor="middle" x="180.746" y="-179.6147" font-family="Helvetica Neue" font-size="10.00" fill="#000000">1: if({param1} != {lv0}) goto 5</text>
</g>
<!-- 1819764736&#45;&gt;131115212 -->
<g id="edge4" class="edge">
<title>1819764736-&gt;131115212</title>
<path fill="none" stroke="#000000" d="M141.5412,-170.5735C127.5892,-164.1531 112.0799,-157.0161 98.8946,-150.9485"></path>
<polygon fill="#000000" stroke="#000000" points="100.3073,-147.7459 89.7598,-146.7449 97.3809,-154.1049 100.3073,-147.7459"></polygon>
</g>
<!-- 604039735 -->
<g id="node6" class="node">
<title>604039735</title>
<polygon fill="none" stroke="#000000" points="434.288,-154.6147 153.204,-154.6147 153.204,-118.6147 434.288,-118.6147 434.288,-154.6147"></polygon>
<text text-anchor="start" x="161.225" y="-139.6147" font-family="Helvetica Neue" font-size="10.00" fill="#000000">2: lv2 = new ArithmeticException</text>
<text text-anchor="middle" x="293.746" y="-127.6147" font-family="Helvetica Neue" font-size="10.00" fill="#000000">3: {lv2}/*(non-virtual) java.lang.ArithmeticException*/.&lt;init&gt;()</text>
</g>
<!-- 1819764736&#45;&gt;604039735 -->
<g id="edge5" class="edge">
<title>1819764736-&gt;604039735</title>
<path fill="none" stroke="#000000" d="M219.9508,-170.5735C228.1897,-166.7822 236.9717,-162.7409 245.4975,-158.8175"></path>
<polygon fill="#000000" stroke="#000000" points="246.9894,-161.9839 254.6105,-154.6239 244.0631,-155.6249 246.9894,-161.9839"></polygon>
</g>
<!-- 209541128 -->
<g id="node7" class="node">
<title>209541128</title>
<polygon fill="#ff0000" stroke="#000000" points="347.7549,-45.0456 347.7549,-57.569 309.0878,-66.4244 254.4042,-66.4244 215.7371,-57.569 215.7371,-45.0456 254.4042,-36.1903 309.0878,-36.1903 347.7549,-45.0456"></polygon>
<text text-anchor="middle" x="281.746" y="-48.3073" font-family="Helvetica Neue" font-size="10.00" fill="#000000">abnormal return</text>
</g>
<!-- 604039735&#45;&gt;209541128 -->
<g id="edge8" class="edge">
<title>604039735-&gt;209541128</title>
<path fill="none" stroke="#000000" d="M285.3319,-118.2637C283.441,-113.2899 281.7099,-107.8348 280.746,-102.6147 279.2162,-94.33 278.953,-85.1651 279.2294,-76.9007"></path>
<polygon fill="#000000" stroke="#000000" points="282.7359,-76.897 279.8425,-66.7049 275.7485,-76.4768 282.7359,-76.897"></polygon>
</g>
<!-- 1935942048 -->
<g id="node8" class="node">
<title>1935942048</title>
<polygon fill="none" stroke="#000000" points="365.8232,-102.6147 289.6688,-102.6147 289.6688,-82.6147 365.8232,-82.6147 365.8232,-102.6147"></polygon>
<text text-anchor="middle" x="327.746" y="-89.6147" font-family="Helvetica Neue" font-size="10.00" fill="#000000">4: &nbsp;throw {lv2}</text>
</g>
<!-- 604039735&#45;&gt;1935942048 -->
<g id="edge7" class="edge">
<title>604039735-&gt;1935942048</title>
<path fill="none" stroke="#000000" d="M307.7714,-118.4642C309.6921,-115.9786 311.6651,-113.4253 313.5881,-110.9366"></path>
<polygon fill="#000000" stroke="#000000" points="316.4402,-112.9698 319.7852,-102.9168 310.9012,-108.6896 316.4402,-112.9698"></polygon>
</g>
<!-- 1935942048&#45;&gt;209541128 -->
<g id="edge9" class="edge">
<title>1935942048-&gt;209541128</title>
<path fill="none" stroke="#000000" d="M316.1383,-82.1911C313.2039,-79.5561 309.9386,-76.6239 306.6209,-73.6446"></path>
<polygon fill="#000000" stroke="#000000" points="308.6945,-70.8026 298.9156,-66.7254 304.0175,-76.0109 308.6945,-70.8026"></polygon>
</g>
</g>
</svg>