<?xml version="1.0" encoding="UTF-8" standalone="no"?>
<!DOCTYPE svg PUBLIC "-//W3C//DTD SVG 1.1//EN"
 "http://www.w3.org/Graphics/SVG/1.1/DTD/svg11.dtd">
<!-- Generated by graphviz version 2.41.20171026.1811 (20171026.1811)
 -->
<!-- Title: reducible Pages: 1 -->
<svg width="178pt" height="120pt"
 viewBox="0.00 0.00 178.00 119.88" xmlns="http://www.w3.org/2000/svg" xmlns:xlink="http://www.w3.org/1999/xlink">
<g id="graph0" class="graph" transform="scale(1 1) rotate(0) translate(4 115.88)">
<title>reducible</title>
<polygon fill="white" stroke="transparent" points="-4,4 -4,-115.88 174,-115.88 174,4 -4,4"/>
<!-- n0 -->
<g id="node1" class="node">
<title>n0</title>
<polygon fill="none" stroke="black" points="112,-111.88 58,-111.88 58,-75.88 112,-75.88 112,-111.88"/>
<text text-anchor="middle" x="85" y="-90.18" font-family="Times,serif" font-size="14.00">n0</text>
</g>
<!-- n1 -->
<g id="node2" class="node">
<title>n1</title>
<polygon fill="none" stroke="black" points="54,-36.88 0,-36.88 0,-0.88 54,-0.88 54,-36.88"/>
<text text-anchor="middle" x="27" y="-15.18" font-family="Times,serif" font-size="14.00">n1</text>
</g>
<!-- n0&#45;&gt;n1 -->
<g id="edge1" class="edge">
<title>n0&#45;&gt;n1</title>
<path fill="none" stroke="blue" d="M71.25,-75.58C64.03,-66.49 55.04,-55.18 47.06,-45.13"/>
<polygon fill="blue" stroke="blue" points="49.61,-42.71 40.65,-37.06 44.13,-47.06 49.61,-42.71"/>
<text text-anchor="middle" x="65" y="-52.68" font-family="Times,serif" font-size="14.00">F</text>
</g>
<!-- n2 -->
<g id="node3" class="node">
<title>n2</title>
<polygon fill="none" stroke="black" points="170,-36.88 116,-36.88 116,-0.88 170,-0.88 170,-36.88"/>
<text text-anchor="middle" x="143" y="-15.18" font-family="Times,serif" font-size="14.00">n2</text>
</g>
<!-- n0&#45;&gt;n2 -->
<g id="edge2" class="edge">
<title>n0&#45;&gt;n2</title>
<path fill="none" stroke="blue" d="M98.75,-75.58C105.97,-66.49 114.96,-55.18 122.94,-45.13"/>
<polygon fill="blue" stroke="blue" points="125.87,-47.06 129.35,-37.06 120.39,-42.71 125.87,-47.06"/>
<text text-anchor="middle" x="122" y="-52.68" font-family="Times,serif" font-size="14.00">F</text>
</g>
<!-- n1&#45;&gt;n2 -->
<g id="edge3" class="edge">
<title>n1&#45;&gt;n2</title>
<path fill="none" stroke="red" stroke-width="2" d="M54.2,-18.88C69.61,-18.88 89.12,-18.88 105.92,-18.88"/>
<polygon fill="red" stroke="red" stroke-width="2" points="105.97,-22.38 115.97,-18.88 105.97,-15.38 105.97,-22.38"/>
<text text-anchor="middle" x="85" y="-25.68" font-family="Times,serif" font-size="14.00">?</text>
</g>
<!-- n2&#45;&gt;n1 -->
<g id="edge4" class="edge">
<title>n2&#45;&gt;n1</title>
<path fill="none" stroke="red" stroke-width="2" d="M115.95,-5.39C105.62,-1.69 93.65,0.88 82.5,-0.88 76.47,-1.83 70.21,-3.33 64.16,-5.07"/>
<polygon fill="red" stroke="red" stroke-width="2" points="62.75,-1.85 54.25,-8.17 64.84,-8.53 62.75,-1.85"/>
<text text-anchor="middle" x="85" y="-4.68" font-family="Times,serif" font-size="14.00">?</text>
</g>
</g>
</svg>
