<?xml version="1.0" encoding="UTF-8" standalone="no"?>
<!DOCTYPE svg PUBLIC "-//W3C//DTD SVG 1.1//EN"
 "http://www.w3.org/Graphics/SVG/1.1/DTD/svg11.dtd">
<!-- Generated by graphviz version 2.41.20171026.1811 (20171026.1811)
 -->
<!-- Title: reducible Pages: 1 -->
<svg width="147pt" height="103pt"
 viewBox="0.00 0.00 147.00 103.00" xmlns="http://www.w3.org/2000/svg" xmlns:xlink="http://www.w3.org/1999/xlink">
<g id="graph0" class="graph" transform="scale(1 1) rotate(0) translate(4 99)">
<title>reducible</title>
<polygon fill="white" stroke="transparent" points="-4,4 -4,-99 143,-99 143,4 -4,4"/>
<!-- n0 -->
<g id="node1" class="node">
<title>n0</title>
<polygon fill="none" stroke="black" points="96,-95 42,-95 42,-59 96,-59 96,-95"/>
<text text-anchor="middle" x="69" y="-73.3" font-family="Times,serif" font-size="14.00">n0</text>
</g>
<!-- n1 -->
<g id="node2" class="node">
<title>n1</title>
<polygon fill="none" stroke="black" points="54,-36 0,-36 0,0 54,0 54,-36"/>
<text text-anchor="middle" x="27" y="-14.3" font-family="Times,serif" font-size="14.00">n1</text>
</g>
<!-- n0&#45;&gt;n1 -->
<g id="edge1" class="edge">
<title>n0&#45;&gt;n1</title>
<path fill="none" stroke="black" d="M56.4,-58.9C52.99,-54.28 49.23,-49.18 45.58,-44.21"/>
<polygon fill="black" stroke="black" points="48.34,-42.06 39.59,-36.09 42.71,-46.22 48.34,-42.06"/>
</g>
<!-- n2 -->
<g id="node3" class="node">
<title>n2</title>
<polygon fill="none" stroke="black" points="139,-36 85,-36 85,0 139,0 139,-36"/>
<text text-anchor="middle" x="112" y="-14.3" font-family="Times,serif" font-size="14.00">n2</text>
</g>
<!-- n0&#45;&gt;n2 -->
<g id="edge3" class="edge">
<title>n0&#45;&gt;n2</title>
<path fill="none" stroke="black" d="M81.9,-58.9C85.39,-54.28 89.24,-49.18 92.98,-44.21"/>
<polygon fill="black" stroke="black" points="95.88,-46.18 99.11,-36.09 90.29,-41.97 95.88,-46.18"/>
</g>
<!-- n1&#45;&gt;n2 -->
<g id="edge2" class="edge">
<title>n1&#45;&gt;n2</title>
<path fill="none" stroke="black" d="M54.23,-6.24C61.1,-4.67 67.97,-4.16 74.85,-4.71"/>
<polygon fill="black" stroke="black" points="74.5,-8.2 84.92,-6.28 75.57,-1.28 74.5,-8.2"/>
</g>
<!-- n2&#45;&gt;n1 -->
<g id="edge4" class="edge">
<title>n2&#45;&gt;n1</title>
<path fill="none" stroke="black" d="M84.92,-29.72C78.04,-31.31 71.17,-31.83 64.3,-31.3"/>
<polygon fill="black" stroke="black" points="64.64,-27.81 54.23,-29.76 63.58,-34.73 64.64,-27.81"/>
</g>
</g>
</svg>
