<?xml version="1.0" encoding="UTF-8" standalone="no"?>
<!DOCTYPE svg PUBLIC "-//W3C//DTD SVG 1.1//EN"
 "http://www.w3.org/Graphics/SVG/1.1/DTD/svg11.dtd">
<!-- Generated by graphviz version 2.41.20171026.1811 (20171026.1811)
 -->
<!-- Title: reducible Pages: 1 -->
<svg width="168pt" height="221pt"
 viewBox="0.00 0.00 167.79 221.00" xmlns="http://www.w3.org/2000/svg" xmlns:xlink="http://www.w3.org/1999/xlink">
<g id="graph0" class="graph" transform="scale(1 1) rotate(0) translate(4 217)">
<title>reducible</title>
<polygon fill="white" stroke="transparent" points="-4,4 -4,-217 163.79,-217 163.79,4 -4,4"/>
<!-- n0 -->
<g id="node1" class="node">
<title>n0</title>
<polygon fill="none" stroke="black" points="139,-213 85,-213 85,-177 139,-177 139,-213"/>
<text text-anchor="middle" x="112" y="-191.3" font-family="Times,serif" font-size="14.00">n0</text>
</g>
<!-- n1 -->
<g id="node2" class="node">
<title>n1</title>
<polygon fill="none" stroke="black" points="139,-154 85,-154 85,-118 139,-118 139,-154"/>
<text text-anchor="middle" x="112" y="-132.3" font-family="Times,serif" font-size="14.00">n1</text>
</g>
<!-- n0&#45;&gt;n1 -->
<g id="edge1" class="edge">
<title>n0&#45;&gt;n1</title>
<path fill="none" stroke="black" d="M112,-176.9C112,-172.95 112,-168.66 112,-164.4"/>
<polygon fill="black" stroke="black" points="115.5,-164.09 112,-154.09 108.5,-164.09 115.5,-164.09"/>
</g>
<!-- n2 -->
<g id="node3" class="node">
<title>n2</title>
<polygon fill="none" stroke="black" points="54,-95 0,-95 0,-59 54,-59 54,-95"/>
<text text-anchor="middle" x="27" y="-73.3" font-family="Times,serif" font-size="14.00">n2</text>
</g>
<!-- n1&#45;&gt;n2 -->
<g id="edge2" class="edge">
<title>n1&#45;&gt;n2</title>
<path fill="none" stroke="black" d="M86.5,-117.9C78.43,-112.49 69.38,-106.42 60.82,-100.68"/>
<polygon fill="black" stroke="black" points="62.74,-97.75 52.48,-95.09 58.84,-103.57 62.74,-97.75"/>
</g>
<!-- n3 -->
<g id="node5" class="node">
<title>n3</title>
<polygon fill="none" stroke="black" points="139,-95 85,-95 85,-59 139,-59 139,-95"/>
<text text-anchor="middle" x="112" y="-73.3" font-family="Times,serif" font-size="14.00">n3</text>
</g>
<!-- n1&#45;&gt;n3 -->
<g id="edge4" class="edge">
<title>n1&#45;&gt;n3</title>
<path fill="none" stroke="black" d="M112,-117.9C112,-113.95 112,-109.66 112,-105.4"/>
<polygon fill="black" stroke="black" points="115.5,-105.09 112,-95.09 108.5,-105.09 115.5,-105.09"/>
</g>
<!-- n4 -->
<g id="node4" class="node">
<title>n4</title>
<polygon fill="none" stroke="black" points="139,-36 85,-36 85,0 139,0 139,-36"/>
<text text-anchor="middle" x="112" y="-14.3" font-family="Times,serif" font-size="14.00">n4</text>
</g>
<!-- n2&#45;&gt;n4 -->
<g id="edge3" class="edge">
<title>n2&#45;&gt;n4</title>
<path fill="none" stroke="black" d="M52.5,-58.9C60.57,-53.49 69.62,-47.42 78.18,-41.68"/>
<polygon fill="black" stroke="black" points="80.16,-44.57 86.52,-36.09 76.26,-38.75 80.16,-44.57"/>
</g>
<!-- n4&#45;&gt;n1 -->
<g id="edge6" class="edge">
<title>n4&#45;&gt;n1</title>
<path fill="none" stroke="black" d="M137.27,-36.23C144.36,-42.49 151.17,-50.21 155,-59 161.39,-73.67 161.39,-80.33 155,-95 152.55,-100.63 148.87,-105.82 144.68,-110.48"/>
<polygon fill="black" stroke="black" points="141.94,-108.26 137.27,-117.77 146.85,-113.25 141.94,-108.26"/>
</g>
<!-- n3&#45;&gt;n4 -->
<g id="edge5" class="edge">
<title>n3&#45;&gt;n4</title>
<path fill="none" stroke="black" d="M112,-58.9C112,-54.95 112,-50.66 112,-46.4"/>
<polygon fill="black" stroke="black" points="115.5,-46.09 112,-36.09 108.5,-46.09 115.5,-46.09"/>
</g>
</g>
</svg>
