<?xml version="1.0" encoding="UTF-8" standalone="no"?>
<!DOCTYPE svg PUBLIC "-//W3C//DTD SVG 1.1//EN"
 "http://www.w3.org/Graphics/SVG/1.1/DTD/svg11.dtd">
<!-- Generated by graphviz version 2.41.20171026.1811 (20171026.1811)
 -->
<!-- Title: reducible Pages: 1 -->
<svg width="174pt" height="269pt"
 viewBox="0.00 0.00 174.00 269.00" xmlns="http://www.w3.org/2000/svg" xmlns:xlink="http://www.w3.org/1999/xlink">
<g id="graph0" class="graph" transform="scale(1 1) rotate(0) translate(4 265)">
<title>reducible</title>
<polygon fill="white" stroke="transparent" points="-4,4 -4,-265 170,-265 170,4 -4,4"/>
<!-- n0 -->
<g id="node1" class="node">
<title>n0</title>
<polygon fill="none" stroke="black" points="139,-261 85,-261 85,-225 139,-225 139,-261"/>
<text text-anchor="middle" x="112" y="-239.3" font-family="Times,serif" font-size="14.00">n0</text>
</g>
<!-- n1 -->
<g id="node2" class="node">
<title>n1</title>
<polygon fill="none" stroke="black" points="139,-186 85,-186 85,-150 139,-150 139,-186"/>
<text text-anchor="middle" x="112" y="-164.3" font-family="Times,serif" font-size="14.00">n1</text>
</g>
<!-- n0&#45;&gt;n1 -->
<g id="edge1" class="edge">
<title>n0&#45;&gt;n1</title>
<path fill="none" stroke="blue" d="M112,-224.7C112,-216.25 112,-205.87 112,-196.37"/>
<polygon fill="blue" stroke="blue" points="115.5,-196.18 112,-186.18 108.5,-196.18 115.5,-196.18"/>
<text text-anchor="middle" x="115" y="-201.8" font-family="Times,serif" font-size="14.00">F</text>
</g>
<!-- n2 -->
<g id="node3" class="node">
<title>n2</title>
<polygon fill="none" stroke="black" points="54,-111 0,-111 0,-75 54,-75 54,-111"/>
<text text-anchor="middle" x="27" y="-89.3" font-family="Times,serif" font-size="14.00">n2</text>
</g>
<!-- n1&#45;&gt;n2 -->
<g id="edge2" class="edge">
<title>n1&#45;&gt;n2</title>
<path fill="none" stroke="blue" d="M91.86,-149.7C80.74,-140.15 66.77,-128.16 54.65,-117.75"/>
<polygon fill="blue" stroke="blue" points="56.87,-115.04 47,-111.18 52.31,-120.35 56.87,-115.04"/>
<text text-anchor="middle" x="80" y="-126.8" font-family="Times,serif" font-size="14.00">F</text>
</g>
<!-- n3 -->
<g id="node5" class="node">
<title>n3</title>
<polygon fill="none" stroke="black" points="139,-111 85,-111 85,-75 139,-75 139,-111"/>
<text text-anchor="middle" x="112" y="-89.3" font-family="Times,serif" font-size="14.00">n3</text>
</g>
<!-- n1&#45;&gt;n3 -->
<g id="edge4" class="edge">
<title>n1&#45;&gt;n3</title>
<path fill="none" stroke="blue" d="M112,-149.7C112,-141.25 112,-130.87 112,-121.37"/>
<polygon fill="blue" stroke="blue" points="115.5,-121.18 112,-111.18 108.5,-121.18 115.5,-121.18"/>
<text text-anchor="middle" x="115" y="-126.8" font-family="Times,serif" font-size="14.00">F</text>
</g>
<!-- n4 -->
<g id="node4" class="node">
<title>n4</title>
<polygon fill="none" stroke="black" points="139,-36 85,-36 85,0 139,0 139,-36"/>
<text text-anchor="middle" x="112" y="-14.3" font-family="Times,serif" font-size="14.00">n4</text>
</g>
<!-- n2&#45;&gt;n4 -->
<g id="edge3" class="edge">
<title>n2&#45;&gt;n4</title>
<path fill="none" stroke="blue" d="M47.14,-74.7C58.26,-65.15 72.23,-53.16 84.35,-42.75"/>
<polygon fill="blue" stroke="blue" points="86.69,-45.35 92,-36.18 82.13,-40.04 86.69,-45.35"/>
<text text-anchor="middle" x="80" y="-51.8" font-family="Times,serif" font-size="14.00">F</text>
</g>
<!-- n4&#45;&gt;n1 -->
<g id="edge6" class="edge">
<title>n4&#45;&gt;n1</title>
<path fill="none" stroke="red" d="M130.16,-36.34C139.54,-46.58 150.03,-60.38 155,-75 160.15,-90.15 160.15,-95.85 155,-111 151.2,-122.2 144.15,-132.91 136.85,-141.91"/>
<polygon fill="red" stroke="red" points="134.05,-139.8 130.16,-149.66 139.35,-144.38 134.05,-139.8"/>
<text text-anchor="middle" x="162" y="-89.3" font-family="Times,serif" font-size="14.00">B</text>
</g>
<!-- n3&#45;&gt;n4 -->
<g id="edge5" class="edge">
<title>n3&#45;&gt;n4</title>
<path fill="none" stroke="blue" d="M112,-74.7C112,-66.25 112,-55.87 112,-46.37"/>
<polygon fill="blue" stroke="blue" points="115.5,-46.18 112,-36.18 108.5,-46.18 115.5,-46.18"/>
<text text-anchor="middle" x="115" y="-51.8" font-family="Times,serif" font-size="14.00">F</text>
</g>
</g>
</svg>
